<svg id="svg" xmlns="http://www.w3.org/2000/svg" xmlns:xlink="http://www.w3.org/1999/xlink" width="400" height="323.9669421487603" viewBox="0, 0, 400,323.9669421487603"><g id="svgg"><path id="path0" d="M8.855 4.945 C 4.224 6.813,-0.000 12.961,0.000 17.832 C 0.000 26.319,-5.060 21.958,99.174 103.316 C 135.083 131.345,171.157 159.597,179.339 166.099 C 187.521 172.600,215.041 194.191,240.496 214.079 C 265.950 233.966,305.372 264.843,328.099 282.694 C 379.954 323.424,380.966 323.946,390.668 314.955 C 400.914 305.459,397.574 300.349,364.078 274.284 C 349.744 263.129,337.343 253.414,336.519 252.694 C 335.685 251.965,339.377 246.730,344.853 240.876 C 387.094 195.720,385.053 123.188,340.300 79.083 C 329.593 68.531,323.437 66.248,316.023 70.082 C 304.921 75.823,306.235 84.556,320.520 99.962 C 344.480 125.803,352.365 156.411,343.011 187.267 C 336.783 207.813,315.475 235.471,309.305 231.018 C 289.849 216.976,283.062 209.917,289.016 209.917 C 290.703 209.917,295.778 206.010,300.294 201.235 C 321.142 179.191,320.552 142.839,298.991 121.063 C 281.908 103.809,260.792 121.276,277.020 139.238 C 290.798 154.489,291.007 168.873,277.673 184.060 C 274.710 187.434,271.822 192.467,271.254 195.244 L 270.221 200.295 254.532 188.235 C 245.903 181.601,238.297 175.399,237.629 174.451 C 236.961 173.503,236.403 142.346,236.389 105.214 C 236.360 29.255,236.553 30.518,224.232 25.588 C 212.526 20.904,214.323 19.673,152.472 74.775 L 132.547 92.526 94.121 62.379 C 72.987 45.798,48.265 26.408,39.183 19.291 C 19.136 3.581,15.958 2.078,8.855 4.945 M46.575 113.389 C 40.017 121.345,39.664 123.919,39.706 163.430 C 39.763 217.418,40.795 218.592,89.256 219.835 L 121.488 220.661 152.893 248.678 C 170.165 264.087,189.132 281.084,195.041 286.448 C 221.473 310.442,236.364 304.027,236.364 268.646 L 236.364 249.803 220.248 237.167 C 211.384 230.217,192.603 215.436,178.512 204.320 C 147.480 179.839,79.218 126.125,65.388 115.304 C 53.354 105.889,52.803 105.833,46.575 113.389 " stroke="none" fill="#3b5a71" fill-rule="evenodd"></path></g></svg>