<svg id="svg" xmlns="http://www.w3.org/2000/svg" xmlns:xlink="http://www.w3.org/1999/xlink" width="400" height="335.23809523809524" viewBox="0, 0, 400,335.23809523809524"><g id="svgg"><path id="path0" d="M204.202 7.053 C 201.799 7.522,194.513 12.813,188.012 18.811 C 177.898 28.141,129.243 71.214,106.521 90.952 L 99.394 97.143 68.077 97.143 C 9.937 97.143,5.823 101.556,5.756 164.001 C 5.688 228.324,7.965 230.940,65.000 232.044 L 100.475 232.730 122.292 252.079 C 134.291 262.721,151.326 277.917,160.149 285.846 C 210.489 331.091,212.511 332.052,226.190 317.237 L 232.381 310.532 232.381 166.784 C 232.381 62.211,231.782 21.722,230.183 18.212 C 226.412 9.935,214.856 4.972,204.202 7.053 M321.209 61.091 C 311.627 68.628,313.880 77.757,329.358 94.110 C 370.129 137.186,370.129 194.243,329.358 237.319 C 313.880 253.671,311.627 262.800,321.209 270.338 C 346.394 290.148,392.315 222.580,392.315 165.714 C 392.315 108.929,346.358 41.309,321.209 61.091 M278.248 113.810 C 270.676 119.998,271.008 129.430,279.140 139.123 C 294.340 157.243,295.241 174.295,281.761 188.725 C 270.843 200.413,269.436 208.656,277.056 216.277 C 293.181 232.402,320.937 205.392,323.384 171.195 C 325.991 134.764,297.277 98.258,278.248 113.810 " stroke="none" fill="#3b5a71" fill-rule="evenodd"></path></g></svg>